<svg width="512" height="206" viewBox="0 0 512 206" fill="none" xmlns="http://www.w3.org/2000/svg">
<path d="M34.0666 205.693L28.9252 195.792H23.0619V205.689H21.4365V184.213H29.5907C31.3731 184.213 32.8422 184.721 33.9955 185.74C35.1502 186.757 35.726 188.172 35.726 189.989C35.726 191.581 35.2856 192.881 34.4026 193.89C33.521 194.898 32.3163 195.532 30.7931 195.792L35.9663 205.689L34.0666 205.694V205.693ZM29.3785 185.655H23.0623V194.349H29.3785C30.8237 194.349 31.9694 193.987 32.8241 193.262C33.675 192.537 34.1014 191.453 34.1014 190.004C34.1014 188.573 33.6746 187.493 32.8241 186.757C31.969 186.025 30.8237 185.655 29.3785 185.655Z" fill="white"/>
<path d="M44.2086 184.211V205.691H57.2034V204.246H45.8344V195.584H55.5228V194.138H45.8344V185.654H57.2034V184.211H44.2086Z" fill="white"/>
<path d="M70.561 205.841C68.9565 205.841 67.6216 205.627 66.5604 205.195C65.4968 204.763 64.4541 204.037 63.4314 203.012L64.5752 201.87C65.5158 202.813 66.4397 203.47 67.342 203.841C68.2433 204.211 69.3469 204.398 70.6526 204.398C72.3556 204.398 73.6995 204.006 74.6824 203.224C75.6654 202.441 76.1565 201.359 76.1565 199.974C76.1565 198.67 75.8606 197.759 75.2696 197.238C74.6786 196.717 74.1906 196.385 73.8092 196.245C73.4286 196.105 72.7884 195.966 71.8826 195.824L69.3866 195.433C67.7639 195.191 66.4393 194.635 65.4159 193.764C64.3947 192.89 63.8824 191.612 63.8824 189.926C63.8824 188.144 64.473 186.718 65.6573 185.654C66.84 184.593 68.4654 184.061 70.5312 184.061C71.8342 184.061 72.9473 184.237 73.8678 184.587C74.7929 184.939 75.7361 185.535 76.6979 186.377L75.6438 187.433C74.8814 186.738 74.1243 186.23 73.3722 185.904C72.6208 185.577 71.6435 185.415 70.4396 185.415C68.8952 185.415 67.6837 185.806 66.7991 186.591C65.9179 187.376 65.4753 188.459 65.4753 189.843C65.4753 191.09 65.8669 192.038 66.6489 192.691C67.4313 193.343 68.4737 193.769 69.7786 193.971L72.0949 194.332C73.1368 194.492 73.9106 194.664 74.4107 194.843C74.9132 195.027 75.6007 195.477 76.472 196.2C77.3433 196.922 77.7796 198.158 77.7796 199.905C77.7796 201.712 77.1337 203.153 75.8383 204.228C74.5466 205.303 72.7876 205.841 70.5607 205.841L70.561 205.841Z" fill="white"/>
<path d="M85.8725 205.69H87.4978V184.21H85.8725V205.69Z" fill="white"/>
<path d="M109.668 203.729C108.365 205.036 106.581 205.689 104.313 205.689H97.1246V184.211H104.313C106.581 184.211 108.274 184.774 109.397 185.902C110.52 187.027 111.191 188.249 111.414 189.565C111.634 190.882 111.745 192.578 111.745 194.649C111.745 196.922 111.638 198.764 111.429 200.17C111.217 201.577 110.63 202.764 109.668 203.729V203.729ZM108.526 187.315C107.943 186.71 107.261 186.284 106.479 186.034C105.697 185.782 104.843 185.653 103.922 185.653H98.7492V204.246H103.922C104.886 204.246 105.741 204.126 106.494 203.884C107.246 203.643 107.959 203.174 108.629 202.48C109.301 201.786 109.719 200.817 109.878 199.569C110.04 198.321 110.119 196.683 110.119 194.649V193.713C110.119 191.784 109.995 190.375 109.745 189.49C109.492 188.604 109.086 187.879 108.526 187.316V187.315Z" fill="white"/>
<path d="M120.527 184.211V205.691H133.521V204.246H122.152V195.584H131.839V194.138H122.152V185.654H133.521V184.211H120.527Z" fill="white"/>
<path d="M155.512 184.211V202.859L143.142 184.218L141.523 184.211V205.691H143.149V187.009L155.512 205.693L157.139 205.691V184.211H155.512Z" fill="white"/>
<path d="M173.262 205.841C172.28 205.841 171.318 205.65 170.374 205.268C169.432 204.889 168.558 204.297 167.757 203.496C166.954 202.692 166.449 201.735 166.238 200.621C166.027 199.508 165.922 197.619 165.922 194.95C165.922 192.704 165.978 190.971 166.087 189.746C166.199 188.525 166.896 187.269 168.179 185.985C169.461 184.703 171.156 184.061 173.262 184.061C175.189 184.061 176.797 184.613 178.091 185.715C179.384 186.819 180.202 188.354 180.543 190.318H178.889C178.567 188.813 177.912 187.634 176.918 186.783C175.924 185.931 174.705 185.506 173.262 185.506C171.658 185.506 170.4 185.96 169.486 186.875C168.574 187.785 168.022 188.759 167.832 189.789C167.641 190.824 167.548 192.545 167.548 194.95C167.548 197.036 167.6 198.636 167.712 199.748C167.822 200.861 168.229 201.77 168.932 202.472C169.634 203.172 170.335 203.67 171.035 203.961C171.74 204.25 172.481 204.398 173.263 204.398C174.706 204.398 175.935 203.97 176.948 203.118C177.96 202.265 178.627 201.087 178.948 199.584H180.543C180.203 201.51 179.38 203.033 178.077 204.157C176.772 205.28 175.168 205.841 173.263 205.841H173.262Z" fill="white"/>
<path d="M189.146 184.211V205.691H202.14V204.246H190.772V195.584H200.456V194.138H190.772V185.654H202.14V184.211H189.146Z" fill="white"/>
<path d="M249.058 203.645C247.594 205.109 245.808 205.84 243.704 205.84C242.721 205.84 241.758 205.65 240.815 205.268C239.873 204.889 239 204.298 238.199 203.495C237.396 202.692 236.889 201.737 236.677 200.621C236.468 199.509 236.364 197.619 236.364 194.952C236.364 192.705 236.417 190.97 236.53 189.748C236.639 188.525 237.335 187.27 238.619 185.986C239.902 184.702 241.598 184.061 243.704 184.061C244.685 184.061 245.649 184.252 246.592 184.632C247.532 185.014 248.406 185.606 249.209 186.406C250.01 187.209 250.515 188.166 250.728 189.281C250.937 190.393 251.044 192.283 251.044 194.951C251.044 197.197 250.988 198.932 250.879 200.155C250.765 201.378 250.16 202.543 249.058 203.645V203.645ZM247.763 187.159C247.243 186.639 246.632 186.232 245.929 185.94C245.228 185.652 244.485 185.505 243.704 185.505C242.097 185.505 240.841 185.961 239.928 186.874C239.014 187.787 238.463 188.758 238.273 189.792C238.082 190.824 237.987 192.544 237.987 194.952C237.987 197.036 238.042 198.636 238.152 199.749C238.263 200.861 238.67 201.77 239.371 202.471C240.073 203.174 240.776 203.671 241.477 203.961C242.178 204.252 242.922 204.397 243.704 204.397C245.309 204.397 246.564 203.941 247.48 203.029C248.391 202.118 248.942 201.143 249.132 200.111C249.323 199.077 249.419 197.358 249.419 194.952C249.419 192.867 249.364 191.267 249.253 190.153C249.143 189.039 248.647 188.044 247.763 187.158V187.159Z" fill="white"/>
<path d="M259.826 184.211V205.691H261.452V195.974H271.138V194.53H261.452V185.654H272.821V184.211H259.826Z" fill="white"/>
<path d="M280.163 184.211V205.691H281.788V195.974H291.474V194.53H281.788V185.654H293.157V184.211H280.163Z" fill="white"/>
<path d="M300.496 205.69H302.123V184.21H300.496V205.69Z" fill="white"/>
<path d="M318.247 205.841C317.264 205.841 316.302 205.65 315.359 205.268C314.416 204.889 313.543 204.297 312.742 203.496C311.938 202.692 311.434 201.735 311.22 200.621C311.012 199.508 310.904 197.619 310.904 194.95C310.904 192.704 310.963 190.971 311.072 189.746C311.18 188.525 311.878 187.269 313.162 185.985C314.445 184.703 316.14 184.061 318.247 184.061C320.173 184.061 321.782 184.613 323.075 185.715C324.368 186.819 325.186 188.354 325.525 190.318H323.873C323.552 188.813 322.896 187.634 321.902 186.783C320.908 185.931 319.689 185.506 318.247 185.506C316.642 185.506 315.385 185.96 314.471 186.875C313.557 187.785 313.007 188.759 312.817 189.789C312.626 190.824 312.532 192.545 312.532 194.95C312.532 197.036 312.585 198.636 312.697 199.748C312.806 200.861 313.213 201.77 313.914 202.472C314.615 203.172 315.32 203.67 316.02 203.961C316.721 204.25 317.464 204.398 318.247 204.398C319.69 204.398 320.919 203.97 321.933 203.118C322.942 202.265 323.61 201.087 323.933 199.584H325.525C325.186 201.51 324.362 203.033 323.059 204.157C321.756 205.28 320.153 205.841 318.247 205.841H318.247Z" fill="white"/>
<path d="M334.13 184.211V205.691H347.125V204.246H335.756V195.584H345.44V194.138H335.756V185.654H347.125V184.211H334.13Z" fill="white"/>
<path d="M393.981 205.694L388.838 195.792H382.975V205.689H381.35V184.213H389.504C391.287 184.213 392.757 184.721 393.908 185.74C395.063 186.758 395.642 188.173 395.642 189.989C395.642 191.581 395.198 192.881 394.317 193.89C393.434 194.898 392.23 195.532 390.706 195.793L395.879 205.689L393.981 205.694V205.694ZM389.293 185.655H382.975V194.35H389.293C390.737 194.35 391.883 193.987 392.737 193.262C393.588 192.538 394.014 191.453 394.014 190.004C394.014 188.573 393.588 187.493 392.737 186.758C391.882 186.025 390.737 185.655 389.293 185.655Z" fill="white"/>
<path d="M404.123 184.211V205.691H417.117V204.246H405.748V195.584H415.436V194.138H405.748V185.654H417.117V184.211H404.123Z" fill="white"/>
<path d="M422.714 184.211V185.654H429.091V205.691H430.715V185.654H437.122V184.211H422.714Z" fill="white"/>
<path d="M449.366 184.211L441.484 205.69L443.217 205.687L445.073 200.455H455.104L456.96 205.687L458.693 205.69L450.809 184.211H449.366ZM450.089 186.347L454.574 199.012H445.601L450.089 186.347H450.089Z" fill="white"/>
<path d="M465.458 205.69H467.086V184.21H465.458V205.69Z" fill="white"/>
<path d="M476.709 184.211V205.691H489.705V204.246H478.336V184.211H476.709Z" fill="white"/>
<path d="M8.13716 194.349C8.13716 192.243 6.42967 190.537 4.3234 190.537C2.21977 190.537 0.511147 192.243 0.511147 194.349C0.511147 196.455 2.21977 198.163 4.3234 198.163C6.42967 198.163 8.13716 196.455 8.13716 194.349Z" fill="white"/>
<path d="M223.065 194.349C223.065 192.243 221.357 190.537 219.251 190.537C217.148 190.537 215.439 192.243 215.439 194.349C215.439 196.455 217.148 198.163 219.251 198.163C221.357 198.163 223.065 196.455 223.065 194.349Z" fill="white"/>
<path d="M368.05 194.349C368.05 192.243 366.342 190.537 364.236 190.537C362.132 190.537 360.424 192.243 360.424 194.349C360.424 196.455 362.132 198.163 364.236 198.163C366.342 198.163 368.05 196.455 368.05 194.349Z" fill="white"/>
<path d="M510.631 194.349C510.631 192.243 508.925 190.537 506.817 190.537C504.714 190.537 503.006 192.243 503.006 194.349C503.006 196.455 504.714 198.163 506.817 198.163C508.925 198.163 510.631 196.455 510.631 194.349Z" fill="white"/>
<path d="M445.405 29.9494C407.964 30.0833 379.71 58.382 379.854 95.6021C379.998 132.846 409.015 161.994 445.855 161.896C483.34 161.796 511.645 133.563 511.555 96.369C511.461 58.9934 482.405 29.8185 445.405 29.9494ZM445.835 152.38C414.307 152.463 389.472 127.522 389.35 95.6494C389.227 63.7966 413.407 39.5792 445.447 39.4634C477.11 39.3506 501.977 64.3202 502.057 96.3062C502.136 128.134 477.911 152.295 445.835 152.38Z" fill="#BA9E66"/>
<path d="M89.9439 80.7133C86.1309 57.2658 73.2227 41.7679 49.8596 35.6575C33.6175 31.4113 17.042 33.1362 0.576977 32.9501C0.42261 32.9474 0.265974 33.1423 0.00112915 33.3205V158.968C8.9665 158.968 17.7707 159.212 26.5526 158.889C33.1672 158.646 39.8655 158.235 46.3308 156.933C68.6821 152.434 83.3042 139.366 88.7816 116.891C91.6937 104.942 91.9136 92.8167 89.9439 80.7133ZM80.288 115.946C76.3282 134.109 65.0307 144.949 46.8597 148.767C34.3072 151.405 21.6261 150.474 8.76635 150.695V41.2136C21.4929 41.4735 34.011 40.4444 46.4042 42.9718C64.8022 46.725 76.3229 57.5522 80.3077 75.9779C83.1839 89.2678 83.1884 102.659 80.2884 115.946H80.288Z" fill="#BA9E66"/>
<path d="M279.462 106.653V158.428H282.357V101.502H281.827L279.462 106.653Z" fill="#BA9E66"/>
<path d="M320.19 101.945V158.428H323.084V107.668L322.813 107.02L320.19 101.945Z" fill="#BA9E66"/>
<path d="M294.442 116.121H294.269V158.804H296.522V120.141L294.442 116.121Z" fill="#BA9E66"/>
<path d="M307.402 116.121H307.23V158.804H309.483V120.141L307.402 116.121Z" fill="#BA9E66"/>
<path d="M267.431 1.21385e-05L267.401 61.1803C267.401 61.1803 266.743 64.7526 271.773 64.6596C274.839 64.6002 300.029 64.5756 319.22 64.5597C331.434 64.5513 341.328 74.4486 341.328 86.6594V158.702H334.305V89.0601C334.305 80.6989 327.528 73.9219 319.169 73.9219H267.469V158.693H259.499V10.3819L267.431 -0.000366211L267.431 1.21385e-05Z" fill="#BA9E66"/>
<path d="M213.632 158.732C211.756 154.895 205.07 138.327 203.281 134.455C202.635 133.057 201.825 132.422 200.009 132.425C176.443 132.483 161.621 133.246 138.056 133.193C136.259 133.189 135.386 133.752 134.793 135.212L126.374 158.657L115.106 158.732C131.177 119.853 143.91 89.379 166.474 34.7946C166.913 34.8029 173.367 34.8112 173.806 34.8195C190.369 75.8175 206.43 117.732 222.995 158.732H213.632H213.632ZM198.539 123.77C187.217 95.3524 181.895 79.0047 170.671 50.8362C170.337 50.8684 170 50.8998 169.665 50.9312C158.082 79.0527 151.93 95.3539 140.225 123.77H198.539Z" fill="#BA9E66"/>
</svg>
